<svg id="artwork" height="512" viewBox="0 0 64 64" width="512" xmlns="http://www.w3.org/2000/svg"><path d="m32.00051 8.49619a16.5012 16.5012 0 1 0 16.5 16.5012 16.51958 16.51958 0 0 0 -16.5-16.5012zm6.14929 15.8341-2.4808 2.41833.58563 3.41474a.81861.81861 0 0 1 -1.18775.863l-3.0664-1.61223-3.06638 1.61226a.8186.8186 0 0 1 -1.18774-.863l.58563-3.41474-2.48077-2.41833a.81867.81867 0 0 1 .45367-1.3964l3.42835-.49821 1.5332-3.10685a.81859.81859 0 0 1 1.46814 0l1.5332 3.10685 3.42835.49821a.81867.81867 0 0 1 .45367 1.39637z" fill="#000"/><path d="m58.33036 54.87847-7.08136-13.69283a9.47021 9.47021 0 0 0 2.77015-9.03245 9.50892 9.50892 0 0 0 0-14.31159 9.5079 9.5079 0 0 0 -8.41043-11.577 9.50565 9.50565 0 0 0 -13.60821-4.42221 9.50565 9.50565 0 0 0 -13.60825 4.42219 9.5072 9.5072 0 0 0 -8.40995 11.577 9.50986 9.50986 0 0 0 0 14.31159 9.46857 9.46857 0 0 0 2.76924 9.03239l-7.08138 13.69291a1.50135 1.50135 0 0 0 1.45935 2.18375l7.30067-.62016 3.71356 6.31785a1.50018 1.50018 0 0 0 2.62527-.07032l6.8361-13.21935a9.50231 9.50231 0 0 0 4.39539-1.31784 9.4916 9.4916 0 0 0 4.39124 1.30972l6.84125 13.22747a1.49975 1.49975 0 0 0 2.62478.07032l3.71258-6.31785 7.30115.62016a1.5 1.5 0 0 0 1.45885-2.18375zm-38.97773 4.01885-2.8152-4.78941a1.50035 1.50035 0 0 0 -1.4198-.73443l-5.53421.46976 5.671-10.96558a9.482 9.482 0 0 0 3.13786.85254 9.45529 9.45529 0 0 0 6.03124 5.3605zm11.73537-13.74514a6.50612 6.50612 0 0 1 -10.19447-3.31274 1.45547 1.45547 0 0 0 -1.47644-1.07235 6.50706 6.50706 0 0 1 -6.29977-8.67348 1.50037 1.50037 0 0 0 -.56392-1.73548 6.5084 6.5084 0 0 1 0-10.72148 1.50037 1.50037 0 0 0 .56392-1.73548 6.50691 6.50691 0 0 1 6.12448-8.67543 1.5241 1.5241 0 0 0 1.65172-1.07039 6.50612 6.50612 0 0 1 10.19448-3.31275 1.50149 1.50149 0 0 0 1.825 0 6.50666 6.50666 0 0 1 10.195 3.31275 1.47228 1.47228 0 0 0 1.47546 1.07234 6.50814 6.50814 0 0 1 6.30124 8.67348 1.4988 1.4988 0 0 0 .56343 1.73548 6.50777 6.50777 0 0 1 0 10.72148 1.49881 1.49881 0 0 0 -.56343 1.73548 6.42423 6.42423 0 0 1 -.872 5.9936 6.50893 6.50893 0 0 1 -5.42924 2.67988 1.4608 1.4608 0 0 0 -1.47546 1.07235 6.50666 6.50666 0 0 1 -10.195 3.31274 1.49963 1.49963 0 0 0 -1.825 0zm17.79491 8.2213a1.46935 1.46935 0 0 0 -1.41981.73443l-2.81422 4.78941-5.07044-9.80339a9.47356 9.47356 0 0 0 6.03033-5.36373 9.49111 9.49111 0 0 0 3.13792-.85315l5.67091 10.96619z"/></svg>