<svg fill="#222222" id="Capa_1" enable-background="new 0 0 512 512" height="512" viewBox="0 0 512 512" width="512" xmlns="http://www.w3.org/2000/svg"><g><path d="m479.511 153.703h-6.99v-138.74c.001-8.264-6.699-14.963-14.962-14.963h-403.118c-8.264 0-14.963 6.699-14.963 14.963v105.303h-6.99c-17.568 0-31.861 13.61-31.861 30.34v331.053c0 16.729 14.293 30.34 31.861 30.34l447.023.001c17.568 0 31.861-13.61 31.861-30.339v-297.619c.001-16.729-14.292-30.339-31.861-30.339zm-410.106-123.777h373.191v123.776l-179.175-.001-8.709-23.644c-2.167-5.883-7.771-9.791-14.041-9.791h-171.266zm-36.916 120.267h197.748l8.709 23.644c2.167 5.883 7.771 9.791 14.041 9.791l204.571.001h.002.002 21.951c1.093 0 1.718.439 1.935.661v29.779l-450.892-.001v-63.215c.214-.221.84-.66 1.933-.66zm448.957 331.219c-.216.222-.842.661-1.935.661l-447.023-.001c-1.094 0-1.718-.439-1.935-.661v-237.416l450.892.001v237.416z"/></g></svg>